<?xml version="1.0" encoding="utf-8"?>
<!-- Generator: Adobe Illustrator 12.0.0, SVG Export Plug-In . SVG Version: 6.00 Build 51448)  -->
<!DOCTYPE svg PUBLIC "-//W3C//DTD SVG 1.1//EN" "http://www.w3.org/Graphics/SVG/1.1/DTD/svg11.dtd" >
<svg  version="1.1" id="Layer_1" xmlns="http://www.w3.org/2000/svg" xmlns:xlink="http://www.w3.org/1999/xlink" width="39.479" height="49.349"
	 viewBox="0 0 39.479 49.349" overflow="visible" enable-background="new 0 0 39.479 49.349" xml:space="preserve">
<g>
	<ellipse opacity="0.75" fill="#BDBEC0" enable-background="new    " cx="18.895" cy="46.535" rx="18.43" ry="2.184"/>
	<path fill="#8CC643" stroke="#0A6132" stroke-width="0.4831" d="M36.693,30.762c1.107-7.923-3.154-15.359-10.012-18.631
		l-0.119-0.479c0.527-0.605,2.064-3.514,2.262-3.492c2.063,0.221,3.914-1.27,4.137-3.332c0.221-2.063-1.271-3.914-3.334-4.135
		c-2.063-0.223-3.914,1.271-4.133,3.332c-0.133,1.232,0.35,2.393,1.197,3.17c0.125,0.115-1.225,3.211-1.396,3.904l-0.719,0.188
		c-1.002-0.33-2.049-0.576-3.131-0.727c-0.801-0.111-1.594-0.168-2.381-0.174l-0.486-0.326c-0.609-0.123-1.166-0.107-1.691-0.008
		c0.016,0.033,0.033,0.068,0.047,0.096l-0.154,0.373c-7.852,0.961-14.387,7.086-15.533,15.29C-0.121,35.6,6.705,44.643,16.494,46.01
		S35.326,40.553,36.693,30.762z"/>
	
		<radialGradient id="XMLID_9_" cx="-172.7588" cy="-822.231" r="23.3586" gradientTransform="matrix(0.9593 -0.2824 -0.2824 -0.9593 -44.6834 -815.7645)" gradientUnits="userSpaceOnUse">
		<stop  offset="0" style="stop-color:#FBED28"/>
		<stop  offset="1" style="stop-color:#0B6E3A"/>
	</radialGradient>
	<circle fill="url(#XMLID_9_)" stroke="#2D9145" stroke-width="0.4831" cx="18.971" cy="28.109" r="17.338"/>
	
		<radialGradient id="XMLID_10_" cx="-35.2446" cy="-740.7026" r="4.2541" gradientTransform="matrix(0.9943 0.1068 0.1068 -0.9943 144.0688 -729.1682)" gradientUnits="userSpaceOnUse">
		<stop  offset="0" style="stop-color:#FBED28"/>
		<stop  offset="1" style="stop-color:#0B6E3A"/>
	</radialGradient>
	<circle opacity="0.41" fill="url(#XMLID_10_)" enable-background="new    " cx="28.984" cy="4.443" r="3.159"/>
	
		<radialGradient id="XMLID_11_" cx="123.4834" cy="-331.853" r="2.3456" gradientTransform="matrix(0.8991 0.4379 0.6494 -1.3333 130.0889 -468.8467)" gradientUnits="userSpaceOnUse">
		<stop  offset="0" style="stop-color:#57595B"/>
		<stop  offset="1" style="stop-color:#020202"/>
	</radialGradient>
	<path fill="url(#XMLID_11_)" d="M29.645,28.037c0.473-0.411,0.896-0.962,1.322-1.587c1.338-1.959,1.951-5.968-0.625-7.226
		c-1.191-0.584-2.545-0.057-3.625,0.563c-1.67,0.953-2.893,2.96-2.975,4.878c-0.078,1.869,1.043,3.515,2.867,4.009
		C27.93,29.031,28.857,28.725,29.645,28.037z"/>
	
		<radialGradient id="XMLID_12_" cx="-181.2935" cy="-841.5229" r="4.5938" gradientTransform="matrix(0.9593 -0.2824 -0.2824 -0.9593 -44.6834 -815.7645)" gradientUnits="userSpaceOnUse">
		<stop  offset="0" style="stop-color:#20341C"/>
		<stop  offset="1" style="stop-color:#076E3A"/>
	</radialGradient>
	<path fill="url(#XMLID_12_)" stroke="#20341C" stroke-width="0.5797" d="M19.744,42.809c-6.674,1.172-2.258-12.092,2.084-7.664
		C23.666,37.018,22.398,42.344,19.744,42.809z"/>
	
		<radialGradient id="XMLID_13_" cx="37.7144" cy="-389.4355" r="2.3268" gradientTransform="matrix(0.8671 -0.4981 -0.7388 -1.2859 -303.6649 -453.9518)" gradientUnits="userSpaceOnUse">
		<stop  offset="0" style="stop-color:#57595B"/>
		<stop  offset="1" style="stop-color:#020202"/>
	</radialGradient>
	<path fill="url(#XMLID_13_)" d="M17.799,23.272c-0.439-1.509-1.555-2.808-3.332-3.3c-1.211-0.336-2.869-0.223-3.846,0.625
		c-3.412,2.962,0.602,11.229,4.885,8.697C17.676,28.013,18.428,25.427,17.799,23.272z"/>
	<path fill="#8CC641" stroke="#046132" stroke-width="0.4831" d="M14.779,6.242C14.951,5.092,14.59,3.875,13.695,3
		c-1.48-1.455-3.857-1.434-5.311,0.048c-1.453,1.479-1.43,3.856,0.049,5.31c1.48,1.455,3.857,1.432,5.311-0.049
		c0.254-0.26,1.486,0.463,1.74,0.592c0.547,0.279,1.531,0.527,1.266,1.359c0.236-0.242,0.498-0.471,0.74-0.707
		c-0.359,0.35-0.658,0.674-0.949,1.021c0.045-0.006,0.105-0.021,0.146-0.039c-0.027,0.029-0.057,0.039-0.063,0.08
		c0.729-0.215,1.543-0.098,2.279-0.209c0.035-0.277-0.176-0.619-0.283-0.867c-0.215-0.498-0.471-1.094-0.85-1.492
		c-0.305-0.318-0.807-0.506-1.193-0.719C16.391,7.225,14.742,6.488,14.779,6.242z"/>
	
		<radialGradient id="XMLID_14_" cx="204.291" cy="558.7627" r="4.2545" gradientTransform="matrix(0.262 0.9651 0.9651 -0.262 -580.5929 -44.5954)" gradientUnits="userSpaceOnUse">
		<stop  offset="0" style="stop-color:#FCEE23"/>
		<stop  offset="1" style="stop-color:#076E3A"/>
	</radialGradient>
	<circle opacity="0.5" fill="url(#XMLID_14_)" enable-background="new    " cx="11.055" cy="5.632" r="3.159"/>
	<path fill="#076E3A" d="M8.662,16.496c1.371-1.322,2.559-2.82,4.381-3.514c1.117-0.426,3.02-1.109,3.67,0.369
		c-0.49,0.305-1.268-0.154-1.801-0.191c-0.836-0.057-1.684,0.361-2.398,0.752c-1.313,0.719-2.479,1.766-3.768,2.5"/>
	<path fill="#076E3A" d="M28.424,14.891c-0.43-0.977-1.826-1.715-2.738-2.125c-0.611-0.273-1.168-0.422-1.83-0.4
		c-0.326,0.012-1.646,0.182-0.801,0.637c0.283,0.154,0.949-0.066,1.254-0.053C25.656,13.012,27.492,13.92,28.424,14.891z"/>
	<path fill="#FFFFFF" d="M11.998,21.195c-0.904,0.119-0.711,1.389-0.025,1.115c0.551-0.221,0.24-0.92-0.1-1.115"/>
	<path fill="#FFFFFF" d="M26.998,20.57c-0.602,0.217-0.645,0.811-0.262,1.242c0.602-0.072,0.703-0.801,0.262-1.117"/>
	<path fill="#FFFFFF" d="M24.873,23.696c-0.359,0.92,0.695,0.697,0.48-0.115c-0.123-0.023-0.23-0.004-0.355-0.01"/>
	<path fill="#FFFFFF" d="M10.998,23.446c-0.025,0.201-0.021,0.4,0.016,0.598C11.559,23.995,11.479,23.585,10.998,23.446"/>
	<g>
		<g opacity="0.35">
			<linearGradient id="XMLID_15_" gradientUnits="userSpaceOnUse" x1="4.8301" y1="15.0625" x2="19.6426" y2="28">
				<stop  offset="0.0169" style="stop-color:#AAE0FA"/>
				<stop  offset="0.4157" style="stop-color:#E4F5FD"/>
				<stop  offset="0.8483" style="stop-color:#00ADEF"/>
				<stop  offset="0.9551" style="stop-color:#AAE0FA"/>
			</linearGradient>
			<path fill="url(#XMLID_15_)" d="M19.285,24.722c1.178-2.749,1.205-6.558-0.164-9.241c-1.186-2.324-3.857-3.242-6.33-3.172
				c-1.262,0.035-2.529,0.305-3.68,0.824c-1.453,0.656-2.393,1.521-3.193,2.955C3.58,20.295,2.775,28.461,8.715,30.264
				C13.225,31.633,17.564,28.73,19.285,24.722z"/>
		</g>
		<g>
			<path fill="none" stroke="#000000" d="M19.254,25.065c1.178-2.749,1.205-6.558-0.164-9.241c-1.186-2.324-3.857-3.242-6.33-3.172
				c-1.262,0.035-2.529,0.305-3.68,0.824c-1.453,0.656-2.393,1.521-3.193,2.955c-2.338,4.207-3.143,12.373,2.797,14.176
				C13.193,31.977,17.533,29.074,19.254,25.065z"/>
			<path fill="none" stroke="#000000" d="M20.154,20.008c0.27-0.59,0.398-0.91,1.094-1.002c0.873-0.115,1.191,0.27,1.281,1.064"/>
		</g>
		<path fill="#FFFFFF" d="M7.342,14.258c-0.416,0.152-0.713,0.396-0.854,0.809c0.211-0.117,0.777-0.525,0.729-0.684"/>
		<path fill="#FFFFFF" d="M5.904,15.945c-0.229,0.229-0.344,0.543-0.494,0.805c0.264-0.057,0.434-0.402,0.494-0.68"/>
		<path fill="#FFFFFF" d="M9.342,15.32c-0.596,0.664,0.576,1.369,0.879,0.576c0.205-0.541-0.461-1.041-0.879-0.514"/>
		<path fill="#FFFFFF" d="M6.453,18.922c-0.322,0.99-0.645,2.43-0.234,3.443c-0.135-0.33,0.168-1.326,0.229-1.689
			c0.096-0.561,0.227-1.123,0.529-1.611c0.256-0.416,0.422-0.908,0.717-1.301c0.145-0.195,0.592-0.428,0.535-0.68
			c-0.086-0.381-0.402-0.211-0.604-0.08C7.105,17.346,6.643,18.342,6.453,18.922z"/>
		<g opacity="0.35">
			
				<linearGradient id="XMLID_16_" gradientUnits="userSpaceOnUse" x1="-177.5576" y1="15.0352" x2="-162.7442" y2="27.9734" gradientTransform="matrix(-1 0 0 1 -139.6006 0)">
				<stop  offset="0.0169" style="stop-color:#AAE0FA"/>
				<stop  offset="0.4157" style="stop-color:#E4F5FD"/>
				<stop  offset="0.8483" style="stop-color:#00ADEF"/>
				<stop  offset="0.9551" style="stop-color:#AAE0FA"/>
			</linearGradient>
			<path fill="url(#XMLID_16_)" d="M23.5,24.692c-1.178-2.747-1.205-6.556,0.164-9.241c1.186-2.324,3.857-3.24,6.33-3.17
				c1.262,0.035,2.529,0.305,3.68,0.822c1.453,0.656,2.393,1.523,3.193,2.957c2.34,4.207,3.145,12.371-2.797,14.176
				C29.561,31.605,25.221,28.703,23.5,24.692z"/>
		</g>
		<g>
			<path fill="none" stroke="#000000" d="M23.406,25.237c-1.178-2.749-1.207-6.558,0.164-9.241c1.186-2.324,3.855-3.242,6.33-3.172
				c1.26,0.035,2.527,0.305,3.678,0.824c1.455,0.656,2.395,1.521,3.195,2.955c2.338,4.207,3.143,12.373-2.797,14.176
				C29.467,32.148,25.127,29.246,23.406,25.237z"/>
		</g>
		<path fill="#FFFFFF" d="M36.441,26.782c0.385-0.967,0.795-2.385,0.451-3.422c0.111,0.338-0.252,1.314-0.336,1.67
			c-0.131,0.555-0.297,1.107-0.629,1.576c-0.281,0.4-0.479,0.881-0.797,1.254c-0.158,0.185-0.617,0.388-0.578,0.644
			c0.063,0.387,0.389,0.236,0.598,0.117C35.691,28.314,36.215,27.349,36.441,26.782z"/>
	</g>
</g>
</svg>
