<?xml version="1.0" encoding="utf-8"?>
<!-- Generator: Adobe Illustrator 12.0.0, SVG Export Plug-In . SVG Version: 6.00 Build 51448)  -->
<!DOCTYPE svg PUBLIC "-//W3C//DTD SVG 1.1//EN" "http://www.w3.org/Graphics/SVG/1.1/DTD/svg11.dtd" >
<svg  version="1.1" id="Layer_1" xmlns="http://www.w3.org/2000/svg" xmlns:xlink="http://www.w3.org/1999/xlink" width="40.833" height="52.176"
	 viewBox="0 0 40.833 52.176" overflow="visible" enable-background="new 0 0 40.833 52.176" xml:space="preserve">
<ellipse opacity="0.75" fill="#BCBEC0" enable-background="new    " cx="20.316" cy="49.074" rx="18.429" ry="2.184"/>
<path fill="#8CC63F" stroke="#006031" stroke-width="0.4831" d="M21.034,13.153c7.595,0.153,14.544,5.17,16.803,12.845
	c2.791,9.482-2.634,19.43-12.114,22.22c-9.482,2.791-19.43-2.633-22.221-12.114c-2.339-7.946,1.091-16.221,7.846-20.335
	l-0.013-0.404c-0.602-0.436-2.567-2.983-2.75-2.925c-1.97,0.649-4.093-0.422-4.742-2.392s0.423-4.092,2.392-4.741
	c1.97-0.648,4.094,0.422,4.742,2.393c0.392,1.189,0.155,2.436-0.526,3.378c-0.099,0.137,1.889,2.859,2.208,3.506l0.716,0.12
	c0.719-0.32,1.466-0.595,2.241-0.823c1.049-0.309,2.103-0.517,3.153-0.63l0.577-0.468c-0.13-0.7-0.178-4.077-0.339-4.131
	c-1.094-0.358-2.01-1.216-2.398-2.394C15.959,4.289,17.031,2.166,19,1.518c1.97-0.649,4.092,0.423,4.742,2.392
	c0.648,1.971-0.423,4.093-2.393,4.742c-0.188,0.062-0.389,3.345-0.621,4.113L21.034,13.153z"/>
<radialGradient id="XMLID_7_" cx="23.2856" cy="25.4409" r="23.3586" gradientTransform="matrix(0.9593 -0.2824 -0.2824 -0.9593 8.2812 55.8151)" gradientUnits="userSpaceOnUse">
	<stop  offset="0" style="stop-color:#FFF200"/>
	<stop  offset="1" style="stop-color:#006E3A"/>
</radialGradient>
<circle fill="url(#XMLID_7_)" stroke="#28903A" stroke-width="0.4831" cx="20.615" cy="31.149" r="17.338"/>
<radialGradient id="XMLID_8_" cx="0.7373" cy="38.3618" r="4.2551" gradientTransform="matrix(0.9499 -0.3127 -0.3127 -0.9499 19.1716 44.3975)" gradientUnits="userSpaceOnUse">
	<stop  offset="0" style="stop-color:#FFF200"/>
	<stop  offset="1" style="stop-color:#006E3A"/>
</radialGradient>
<circle opacity="0.5" fill="url(#XMLID_8_)" enable-background="new    " cx="7.397" cy="8.896" r="3.159"/>
<radialGradient id="XMLID_9_" cx="14.0483" cy="37.9673" r="4.2546" gradientTransform="matrix(0.9499 -0.3127 -0.3127 -0.9499 19.1716 44.3975)" gradientUnits="userSpaceOnUse">
	<stop  offset="0" style="stop-color:#FFF200"/>
	<stop  offset="1" style="stop-color:#006E3A"/>
</radialGradient>
<circle opacity="0.41" fill="url(#XMLID_9_)" enable-background="new    " cx="20.165" cy="5.107" r="3.159"/>
<radialGradient id="XMLID_10_" cx="21.8442" cy="154.1343" r="7.7321" gradientTransform="matrix(0.9904 0.1384 0.2052 -1.4688 -30.8076 250.9482)" gradientUnits="userSpaceOnUse">
	<stop  offset="0" style="stop-color:#565759"/>
	<stop  offset="1" style="stop-color:#000000"/>
</radialGradient>
<path fill="url(#XMLID_10_)" d="M30.22,29.219c-0.491-0.863-1.626-1.764-2.232-2.116c-1.429-0.831-3.497-0.867-4.946-0.046
	c-0.944,0.535-1.341,1.72-0.208,2.286c1.235,0.617,2.434-0.871,3.679-1.011c0.67-0.075,4.253,0.965,3.894,1.925
	C30.522,29.948,30.43,29.587,30.22,29.219z"/>
<radialGradient id="XMLID_11_" cx="19.8354" cy="155.8989" r="8.109" gradientTransform="matrix(0.9904 0.1384 0.2052 -1.4688 -30.8076 250.9482)" gradientUnits="userSpaceOnUse">
	<stop  offset="0" style="stop-color:#565759"/>
	<stop  offset="1" style="stop-color:#000000"/>
</radialGradient>
<path fill="url(#XMLID_11_)" d="M18.894,26.359c-0.083-1.806-0.557-4.175-2.141-4.615c-2.102-0.583-3.878,2.227-4.772,3.678
	c-1.125,1.828-0.663,3.54,1.301,4.666c1.998,1.146,5.482-0.066,5.609-2.483C18.911,27.255,18.915,26.826,18.894,26.359z"/>
<g>
	<path fill="#357A1F" d="M22.616,20.546c-0.221,0.166-0.265,0.479-0.099,0.7s0.479,0.265,0.7,0.099
		c2.01-1.511,5.544-1.415,7.155,0.608C28.392,19.467,25.383,18.462,22.616,20.546z"/>
</g>
<radialGradient id="XMLID_12_" cx="15.4155" cy="36.9741" r="13.9548" gradientUnits="userSpaceOnUse">
	<stop  offset="0" style="stop-color:#1E3319"/>
	<stop  offset="1" style="stop-color:#006E3A"/>
</radialGradient>
<path fill="url(#XMLID_12_)" stroke="#1E3319" stroke-width="0.4203" d="M24.78,42.614c-5.522,1.931-12.611-0.269-15.05-5.944
	c1.941,4.519,5.548,6.908,10.225,7.846c2.001,0.401,3.318,0.658,5.168-0.427c2.117-1.243,3.85-3.23,4.894-5.444
	C28.713,40.576,26.857,41.886,24.78,42.614z"/>
<path fill="none" stroke="#1E3319" stroke-width="0.4203" d="M28.417,38.588c0.821-0.399,2.569-0.772,3,0.333"/>
<path fill="#1E3319" d="M25.772,42.512c-0.822-0.19-1.776,0.055-2.563,0.295c-0.862,0.263-1.657,0.639-2.351,1.216
	c-0.131,0.108-0.269,0.194-0.39,0.313c-0.05,0.05-0.112,0.131-0.181,0.171c0.119,0.104,0.386,0.076,0.542,0.114
	c0.356,0.088,0.666,0.201,1.043,0.182c0.402-0.021,1.046,0.126,1.264-0.278c0.222-0.413,0.436-0.718,0.867-0.95
	c0.223-0.12,0.44-0.18,0.692-0.189c0.241-0.009,0.503-0.027,0.737,0.049c0.419,0.139,0.732,0.188,0.934,0.622
	c0.148,0.32,0.196,0.694,0.194,1.045c-0.002,0.483-0.187,1.32-0.705,1.534c0.457-0.1,0.959-0.598,1.173-0.997
	c0.213-0.398,0.227-0.803,0.313-1.229c-0.037,0.182,1.063,0.38,1.202,0.39c0.469,0.033,0.941-0.06,1.403-0.126
	c-0.631-0.203-1.495-0.394-2.155-0.884C27.122,43.292,26.635,42.712,25.772,42.512z"/>
</svg>
