<?xml version="1.0" encoding="utf-8"?>
<!-- Generator: Adobe Illustrator 16.0.0, SVG Export Plug-In . SVG Version: 6.00 Build 0)  -->
<!DOCTYPE svg PUBLIC "-//W3C//DTD SVG 1.1//EN" "http://www.w3.org/Graphics/SVG/1.1/DTD/svg11.dtd">
<svg version="1.1" id="Layer_1" xmlns="http://www.w3.org/2000/svg" xmlns:xlink="http://www.w3.org/1999/xlink" x="0px" y="0px"
	 width="45.5px" height="51.333px" viewBox="0 0 45.5 51.333" enable-background="new 0 0 45.5 51.333" xml:space="preserve">
<g>
	<ellipse opacity="0.75" fill="#BDBEC0" enable-background="new    " cx="22.686" cy="47.759" rx="18.43" ry="2.184"/>
	<path fill="#C1CFDB" stroke="#54758E" stroke-width="0.4742" d="M30.246,36.167l7.029,1.67l5.1-4.277l-1.244,6.191l3.733,5.431
		l-6.414-1.503l-5.135,3.896l1.653-6.144L30.246,36.167z M37.261,39.528c-0.71,0.488-0.896,1.45-0.417,2.149
		c0.48,0.7,1.446,0.869,2.158,0.379c0.709-0.489,0.896-1.451,0.416-2.15C38.939,39.207,37.972,39.036,37.261,39.528z"/>
	<g>
		<path fill="#8DC641" stroke="#036132" stroke-width="0.4831" d="M19.467,4.731c0.113-1.158,0.76-2.249,1.841-2.881
			c1.79-1.051,4.09-0.45,5.14,1.34c1.047,1.789,0.447,4.089-1.341,5.137c-1.79,1.05-4.089,0.449-5.138-1.34
			c-0.184-0.314-1.555,0.087-1.833,0.15c-0.599,0.137-1.614,0.138-1.558,1.01c-0.172-0.292-0.368-0.578-0.547-0.867
			c0.264,0.427,0.475,0.814,0.672,1.223c-0.042-0.016-0.098-0.047-0.133-0.074c0.021,0.035,0.045,0.051,0.041,0.093
			c-0.654-0.385-1.472-0.47-2.16-0.757c0.033-0.278,0.322-0.559,0.486-0.772c0.33-0.431,0.723-0.946,1.188-1.24
			c0.372-0.236,0.906-0.295,1.334-0.408C17.665,5.292,19.443,4.979,19.467,4.731z"/>
		
			<radialGradient id="SVGID_1_" cx="167.3213" cy="618.6963" r="4.2555" gradientTransform="matrix(-0.4892 0.8722 -0.8722 -0.4892 643.4802 161.9922)" gradientUnits="userSpaceOnUse">
			<stop  offset="0" style="stop-color:#FCEE23"/>
			<stop  offset="1" style="stop-color:#066F3A"/>
		</radialGradient>
		<circle opacity="0.5" fill="url(#SVGID_1_)" enable-background="new    " cx="23.228" cy="5.046" r="3.159"/>
	</g>
	<g>
		<path fill="#8DC641" stroke="#036132" stroke-width="0.4831" d="M7.435,8.196C6.575,7.412,6.088,6.241,6.229,4.997
			c0.231-2.063,2.089-3.545,4.151-3.313c2.061,0.233,3.543,2.091,3.312,4.15c-0.231,2.063-2.089,3.543-4.151,3.312
			C9.18,9.105,8.68,10.443,8.564,10.704c-0.249,0.562-0.857,1.375-0.125,1.852c-0.336-0.038-0.683-0.051-1.021-0.081
			c0.5,0.044,0.938,0.107,1.382,0.194c-0.038,0.023-0.097,0.05-0.139,0.063c0.04,0.004,0.068-0.006,0.099,0.022
			c-0.699,0.293-1.258,0.897-1.899,1.276c-0.202-0.192-0.255-0.592-0.327-0.852c-0.148-0.522-0.324-1.146-0.281-1.694
			c0.033-0.439,0.307-0.902,0.472-1.312C6.805,9.975,7.618,8.363,7.435,8.196z"/>
		
			<radialGradient id="SVGID_2_" cx="154.9561" cy="665.4902" r="4.2555" gradientTransform="matrix(0.4055 0.9141 -0.9141 0.4055 554.9043 -404.9934)" gradientUnits="userSpaceOnUse">
			<stop  offset="0" style="stop-color:#FCEE23"/>
			<stop  offset="1" style="stop-color:#066F3A"/>
		</radialGradient>
		<circle opacity="0.5" fill="url(#SVGID_2_)" enable-background="new    " cx="9.939" cy="5.374" r="3.159"/>
	</g>
	<path fill="#8DC641" stroke="#036132" stroke-width="0.4831" d="M36.18,19.682c-3.693-7.098-11.477-10.684-18.959-9.374
		l-0.375-0.322c0.012-0.114,0.012-0.282,0.006-0.481c-0.49,0.074-0.98,0.193-1.47,0.425c0.042,0.143,0.079,0.261,0.11,0.339
		l-0.476,0.571c-1.009,0.313-2.004,0.719-2.974,1.224c-0.716,0.373-1.396,0.786-2.041,1.24l-0.425,0.011
		c-0.47,0.464-0.925,0.943-1.376,1.36l0.016,0.063c-5.838,5.335-7.612,14.116-3.789,21.464c4.562,8.768,15.367,12.178,24.136,7.615
		C37.33,39.256,40.742,28.451,36.18,19.682z"/>
	
		<radialGradient id="SVGID_3_" cx="-18.3486" cy="119.8008" r="23.3586" gradientTransform="matrix(0.8871 -0.4615 -0.4615 -0.8871 93.393 119.117)" gradientUnits="userSpaceOnUse">
		<stop  offset="0" style="stop-color:#FCEE23"/>
		<stop  offset="1" style="stop-color:#066F3A"/>
	</radialGradient>
	<circle fill="url(#SVGID_3_)" stroke="#2A9145" stroke-width="0.4831" cx="20.269" cy="28.05" r="17.338"/>
	
		<radialGradient id="SVGID_4_" cx="-23.2871" cy="100.7285" r="1.8914" gradientTransform="matrix(0.8871 -0.4615 -0.4615 -0.8871 93.393 119.117)" gradientUnits="userSpaceOnUse">
		<stop  offset="0" style="stop-color:#20331C"/>
		<stop  offset="1" style="stop-color:#066F3A"/>
	</radialGradient>
	<path fill="url(#SVGID_4_)" stroke="#20331C" stroke-width="0.4203" d="M25.289,39.645c0.055-0.369,0.346-0.746,0.822-0.878
		c0.195-0.054,0.36-0.079,0.5-0.076c1.186,0.006,0.604,1.786-0.43,1.813C25.494,40.521,25.223,40.089,25.289,39.645z"/>
	<path fill="#333A3F" stroke="#0B1723" stroke-width="0.4831" d="M6.84,28.831c0.091-0.301,0.201-0.614,0.334-0.946
		c2.6-6.479,8.443-11.93,15.48-12.697c2.071-0.226,4.027,0.025,5.995,0.612c4.219,1.262,4.86,5.737,6.851,9.13
		c-0.068-0.114,1.677-0.205,1.721-0.238c1.779-1.345-0.547-4.54-1.211-5.782c-1.296-2.417-3.072-4.481-4.938-6.45
		c-0.402-0.422-0.564-0.676-1.158-0.944c-2.393-1.083-5.576-1.857-8.17-2.229c-0.392-0.056-5.06-0.37-4.553-1.134
		c0.781-1.177-2.156-0.239-2.629,0.097c0.142,0.413,0.397,0.722,0.76,0.936c-1.58,0.294-6.277,1.748-6.979,3.377
		c0.662-1.543-3.034,0.103-1.973,1.879c0.299-0.216,0.66-0.347,0.936-0.575c-1.812,2.895-3.932,5.518-4.934,8.814
		c-0.315,1.033-2.26,6.742-0.23,7.083c0.098,1.727,3.376,11.468,5.771,10.088c1.73-0.998-0.418-5.139-0.852-6.446
		C6.49,31.68,6.361,30.44,6.84,28.831z"/>
	<path fill="#333A3F" stroke="#0B1723" stroke-width="0.4831" d="M35.5,22.367c0.357-0.084,0.707-0.141,1.037-0.149
		c2.408-0.061,1.963,1.864,2.168,3.491c0.199,1.577,1.202,3.161,0.115,5.025c1.673-0.717,0.604,2.425,0.389,2.994
		c-3.502,9.251-12.943,15.022-22.854,14.043c-0.427-0.042-1.053-0.022-1.43-0.243c-0.377-0.22-0.453-0.853-0.773-1.045
		c-0.741-0.444-1.895,0.046-2.79-0.264c-0.972-0.336-1.499-1.144-2.284-1.605c-0.729-0.43-1.524-0.219-2.035-1.2
		c-0.172-0.326-0.112-0.995-0.27-1.402c-0.166-0.433-0.578-0.878-0.68-1.306c-0.189-0.804,0.337-1.588,0.86-2.139
		c3.219-3.39,6.991-6.749,10.828-9.466c4.134-2.926,9.126-4.214,13.956-5.471C32.875,23.334,34.244,22.666,35.5,22.367z"/>
	<path fill="#0B1723" d="M16.64,46.637c1.013,0.494,2.187,0.188,3.249,0.147c2.629-0.1,5.145-0.746,7.48-1.961
		c3.153-1.641,5.582-2.91,7.185-6.139c-0.535,1.079-6.948,5.95-7.972,3.878c-0.443-0.902,1.072-1.146,1.508-1.508
		c1.457-1.208,2.145-3.539-0.508-4.266c1.41,1.412-0.016,2.943-1.229,3.689c-0.912,0.562-1.213,0.146-2.086,1.198
		c-1.281,1.542-1.742,2.477-3.563,3.579C19.672,45.88,17.327,45.784,16.64,46.637z"/>
	<path fill="#0B1723" d="M38.035,30.699c-0.021,0.227,0.164,0.472,0.068,0.792c1.641-0.151-0.275,3.395-0.653,4
		c-0.737,1.18-1.897,2.493-2.702,3.24c0.968-0.781,1.836-2.867,2.154-4.083c0.398-1.518-0.468-2.023-0.206-3.302
		c0.193-0.945,1.206-2.446,0.631-3.4c-0.499-0.833-2.146-0.628-3.019-0.621c0.987-0.287,2.547-1.293,2.552-2.515
		c0.005-1.747-1.855-1.078-2.918-1.018c0.401-0.023,1.027-0.923,1.683-0.977c0.631-0.052,1.279,0.209,1.783,0.573
		c2.021,1.46,0.604,5.413,0.332,7.399C37.848,30.797,37.947,30.767,38.035,30.699z"/>
	<path fill="#0B1723" d="M27.104,26.189c-0.844,0.302-6.454,0.738-5.799,2.602c1.137-0.16,1.742-1.144,2.704-1.531
		C24.953,26.88,26.115,26.543,27.104,26.189z"/>
	<path fill="#4F5A5E" d="M14.563,33.131c0.49-0.525,5.801-6.198,5.574-3.121c-2.908,0.266-5.314,2.515-7.207,4.546
		c-0.969,1.041-1.852,2.158-2.717,3.284c-0.445,0.578-1.414,2.922-1.748,3.126c0.377-0.23,0.72-0.186,0.98-0.231
		c-0.537,0.663-1.029,1.416-1.898,1.697c-0.564-0.948,1.455-2.812-0.248-2.915c-0.26-0.014,1.369-1.844,1.526-1.972
		c0.79-0.644,1.587-1.271,2.343-1.985c1.762-1.665,3.502-3.364,5.434-4.837c-0.94,1.135-1.986,2.264-3,3.333
		c-0.762,0.801-1.592,1.469-2.29,2.323c-0.567,0.692-1.272,1.471-1.843,2.31"/>
	<path fill="#4F5A5E" d="M13.173,41.67c-1.05,0.508-2.504,2.12-2.192,3.36C12.242,45.011,13.053,42.753,13.173,41.67z"/>
	<path fill="#0B1723" d="M2.803,29.564c0.711,0.994,0.814-0.882,0.984-1.357c0.341-0.949,1.15-1.751,1.471-2.752
		c-0.019,0.092-0.13,0.47-0.084,0.316c-0.756-0.039-1.264,1.054-1.727,1.588c-0.693,0.801-1.15,1.25-0.586,2.317"/>
	<path fill="#4F5A5E" d="M2.248,26.331c0.012,0.264,0.074,0.49,0.244,0.697c1.232-0.665,0.811-2.41,1.238-3.476
		c0.525-1.31,1.258-2.682,1.93-3.925c0.636-1.173,1.565-2.222,2.205-3.295C8.063,16,8.27,16.005,8.382,15.561
		c0.1-0.397-0.472-0.366-0.456-0.491c0.084-0.618,0.547-1.212,0.891-1.746c-0.398,0.44-0.898,0.714-1.195,0.086
		c-0.736,0.212-0.688-0.339-0.326-0.844c-1.169,0.296-0.517,0.759-0.345,1.14c0.042,0.094,0.469-0.081,0.594,0.393
		c0.07,0.27-0.182,0.607-0.269,0.845c-0.53,1.449-1.563,2.761-2.355,4.078c-1.324,2.202-2.672,4.897-2.725,7.477"/>
	<path fill="#4F5A5E" d="M13.078,11.396c-0.654-1.062-3.727,1.325-2.994,2.125c0.623,0.681,2.863-2.029,3.1-2.462"/>
	<radialGradient id="SVGID_5_" cx="14.7559" cy="24.8213" r="5.765" gradientUnits="userSpaceOnUse">
		<stop  offset="0" style="stop-color:#57585A"/>
		<stop  offset="1" style="stop-color:#010101"/>
	</radialGradient>
	<path fill="url(#SVGID_5_)" d="M17.781,21.884c0.495,0.328,0.918,0.747,1.216,1.246c0.698,1.172,1.554,3.179,3.28,1.768
		c-0.596,0.752-1.672,1.392-2.54,0.962c-1.018-0.504-0.921-2.101-1.745-2.845c-1.053-0.948-2.766-1.025-3.934-0.244
		c-2.625,1.755-0.715,6.668,2.217,4.629c0.549-0.379,1.134-1.259,0.469-1.8c-0.725-0.584-1.171,0.398-1.727,0.437
		c-1.585,0.114-0.51-2.097,0.862-2.14c3.472-0.105,2.015,8.19-2.842,4.655c-1.751-1.276-2.565-4.995-0.739-6.57
		C13.766,20.719,16.168,20.817,17.781,21.884z"/>
	
		<radialGradient id="SVGID_6_" cx="-636.8413" cy="643.1787" r="3.0668" gradientTransform="matrix(-0.9746 0.2239 0.2239 0.9746 -739.1013 -464.9523)" gradientUnits="userSpaceOnUse">
		<stop  offset="0" style="stop-color:#57585A"/>
		<stop  offset="1" style="stop-color:#010101"/>
	</radialGradient>
	<path fill="url(#SVGID_6_)" d="M27.441,21.165c0.01-0.678-0.266-1.37-0.824-1.778c-0.834-0.611-2.168-0.383-2.762,0.469
		c-1.225,1.749,2.051,2.911,2.1,1.475c0.031-0.952-0.646,0.053-1.055-0.025c-0.635-0.125-0.484-1.061-0.105-1.37
		c0.635-0.516,1.668-0.186,1.982,0.537c0.881,2.016-2.129,3.506-3.166,1.604c-0.211-0.389-0.488-0.904-0.998-0.846
		c0.639,0.326,0.447,0.775,0.602,1.316c0.217,0.758,1.277,1.521,2.07,1.414c0.922-0.125,1.621-1.135,1.967-1.918
		C27.375,21.772,27.438,21.472,27.441,21.165z"/>
	<path fill="#0B1723" d="M23.615,38.517c-0.027-0.002-0.068-3.564-0.115-3.867C21.967,35.122,21.594,38.351,23.615,38.517z"/>
	<path fill="#C1CFDB" stroke="#54758E" stroke-width="0.4831" d="M39.666,17.015l-2.767-6.257l2.298-6.007l-5.793,3.282
		l-6.681-3.126l3.776,6.292l-1.077,2.346c0.425,0.87,1.591,0.625,1.806,1.81l2.335-1.172L39.666,17.015z M32.316,11.829
		c-0.355-0.805-0.006-1.741,0.784-2.089c0.788-0.35,1.718,0.02,2.073,0.825c0.357,0.805,0.006,1.74-0.783,2.09
		S32.672,12.635,32.316,11.829z"/>
	<path fill="#0B1723" d="M31.651,16.036c0.288,0.216,0.56,0.446,0.801,0.677c0.972,0.933,1.562,2.306,2.481,3.198
		c0.582-0.35,1.148,0.303,1.566,0.65c-0.063-1.286-1.701-2.967-2.381-3.992c-0.252-0.379-0.818-1.495-1.203-1.647
		c-0.408-0.162-0.701,0.14-1.087,0.116c-0.522-0.032-0.843-0.508-1.327-0.471c0.016-0.119,0.08-0.18,0.063-0.306
		c-0.858-0.244-1.285-1.517-2.465-1.442c-0.676,0.042-0.887,0.411-0.414,0.898c0.304,0.313,1.166,0.411,1.573,0.448
		c-0.366,0.724,0.856,0.917,1.323,1.174C30.941,15.538,31.307,15.777,31.651,16.036z"/>
</g>
</svg>
