<?xml version="1.0" encoding="utf-8"?>
<!-- Generator: Adobe Illustrator 12.0.0, SVG Export Plug-In . SVG Version: 6.00 Build 51448)  -->
<!DOCTYPE svg PUBLIC "-//W3C//DTD SVG 1.1//EN" "http://www.w3.org/Graphics/SVG/1.1/DTD/svg11.dtd" >
<svg  version="1.1" id="Layer_1" xmlns="http://www.w3.org/2000/svg" xmlns:xlink="http://www.w3.org/1999/xlink" width="38.604" height="49.482"
	 viewBox="0 0 38.604 49.482" overflow="visible" enable-background="new 0 0 38.604 49.482" xml:space="preserve">
<g>
	<radialGradient id="XMLID_8_" cx="2.061" cy="30.8223" r="0.9396" gradientUnits="userSpaceOnUse">
		<stop  offset="0.0112" style="stop-color:#ECE8C7"/>
		<stop  offset="0.5562" style="stop-color:#FFFFFF"/>
		<stop  offset="1" style="stop-color:#CBCDCE"/>
	</radialGradient>
	<path fill="url(#XMLID_8_)" stroke="#F69320" stroke-width="0.4587" stroke-linecap="round" d="M1.282,31.599
		c0.209-0.622,0.346-1.253,0.621-1.853c0.484,0.495,0.842,1.467,0.936,2.142c-0.285,0.056-1.51-0.103-1.494-0.227"/>
	<ellipse opacity="0.75" fill="#BDBEC0" enable-background="new    " cx="19.815" cy="46.666" rx="18.43" ry="2.185"/>
	<path fill="#8CC643" stroke="#0A6132" stroke-width="0.4831" d="M2.167,25.942c-0.15,1.07-0.205,2.153-0.16,3.233
		c0.014,0.306-0.051,2.558,0.234,2.707c-0.578-0.303-1.555-0.439-1.586,0.531c-0.02,0.58,0.588,0.979,0.926,1.375
		c0.211,0.246,0.412,0.499,0.605,0.757c2.061,2.721,3.721,5.566,6.406,7.755c2.525,2.059,5.598,3.391,8.822,3.84
		c9.789,1.367,18.832-5.459,20.199-15.248c1.107-7.924-3.154-15.359-10.012-18.632l-0.119-0.479
		c0.527-0.604,2.064-3.513,2.262-3.491c2.063,0.221,3.914-1.271,4.137-3.333c0.221-2.063-1.271-3.914-3.334-4.135
		c-2.063-0.223-3.914,1.271-4.133,3.331c-0.133,1.234,0.35,2.394,1.197,3.171c0.125,0.116-1.225,3.212-1.396,3.903l-0.719,0.188
		c-1.002-0.33-2.049-0.575-3.131-0.726c-0.801-0.112-1.594-0.17-2.381-0.174l-0.486-0.328c-0.609-0.123-1.166-0.105-1.691-0.006
		c0.016,0.032,0.033,0.068,0.047,0.094L17.7,10.651c-0.061,0.144-2.064,0.376-2.33,0.445c-0.758,0.198-1.5,0.445-2.225,0.741
		c-1.436,0.586-2.795,1.359-4.033,2.293c-1.234,0.932-2.334,2.078-3.402,3.184c-1.08,1.115-2.27,2.145-3.102,3.472
		c-0.426,0.679-0.373,1.169,0.463,1.196C2.571,23.23,2.352,24.615,2.167,25.942z"/>
	<radialGradient id="XMLID_9_" cx="14.0942" cy="19.5361" r="28.9007" gradientUnits="userSpaceOnUse">
		<stop  offset="0" style="stop-color:#FCEE23"/>
		<stop  offset="0.9157" style="stop-color:#076E3A"/>
		<stop  offset="1" style="stop-color:#055D36"/>
	</radialGradient>
	<path fill="url(#XMLID_9_)" stroke="#2B9145" stroke-width="0.5224" d="M19.891,10.903c9.574,0,17.338,7.762,17.338,17.338
		s-7.764,17.337-17.338,17.337c-3.158,0-6.289-0.867-8.988-2.508c-2.354-1.43-4.268-3.449-5.857-5.679
		c-0.582-0.814-1.15-1.546-1.635-2.402c-0.434-0.771-1.182-1.303-1.674-2.03c-0.26-0.383-0.225-0.686,0.295-0.735
		c0.174-0.017,0.465,0.205,0.613,0.112c0.229-0.148-0.086-1.402-0.092-1.654c-0.014-0.813,0-1.627,0-2.44
		c0-1.245,0.131-2.489,0.396-3.704c0.229-1.048,0.77-2.126,0.887-3.18c-0.24-0.025-0.686,0.213-0.869,0.072
		c-0.391-0.3,0.211-0.849,0.422-1.094c2.189-2.532,4.527-5.079,7.4-6.855C13.514,11.797,16.688,10.903,19.891,10.903z"/>
	
		<radialGradient id="XMLID_10_" cx="-33.7729" cy="-750.8882" r="4.2546" gradientTransform="matrix(0.9943 0.1068 0.1068 -0.9943 144.6125 -739.3201)" gradientUnits="userSpaceOnUse">
		<stop  offset="0" style="stop-color:#FBED28"/>
		<stop  offset="1" style="stop-color:#0B6E3A"/>
	</radialGradient>
	<circle opacity="0.41" fill="url(#XMLID_10_)" enable-background="new    " cx="29.905" cy="4.574" r="3.159"/>
	<path fill="#8CC641" stroke="#046132" stroke-width="0.4831" d="M15.7,6.373c0.172-1.149-0.189-2.366-1.084-3.242
		c-1.48-1.455-3.857-1.434-5.311,0.048c-1.453,1.48-1.43,3.857,0.049,5.311c1.48,1.453,3.857,1.431,5.311-0.049
		c0.254-0.261,1.486,0.463,1.74,0.592c0.547,0.279,1.531,0.525,1.266,1.359c0.236-0.244,0.498-0.472,0.74-0.707
		c-0.359,0.349-0.658,0.674-0.949,1.021c0.045-0.006,0.105-0.021,0.146-0.039c-0.027,0.03-0.057,0.039-0.063,0.08
		c0.729-0.214,1.543-0.099,2.279-0.208c0.035-0.277-0.176-0.62-0.283-0.868c-0.215-0.498-0.471-1.093-0.85-1.491
		c-0.305-0.318-0.807-0.507-1.193-0.72C17.311,7.356,15.663,6.619,15.7,6.373z"/>
	
		<radialGradient id="XMLID_11_" cx="207.1323" cy="556.3804" r="4.2564" gradientTransform="matrix(0.262 0.9651 0.9651 -0.262 -578.1194 -47.8296)" gradientUnits="userSpaceOnUse">
		<stop  offset="0" style="stop-color:#FCEE23"/>
		<stop  offset="1" style="stop-color:#076E3A"/>
	</radialGradient>
	<circle opacity="0.5" fill="url(#XMLID_11_)" enable-background="new    " cx="11.975" cy="5.763" r="3.159"/>
	<radialGradient id="XMLID_12_" cx="12.8774" cy="32.9102" r="1.5756" gradientUnits="userSpaceOnUse">
		<stop  offset="0.0112" style="stop-color:#ECE8C7"/>
		<stop  offset="0.5562" style="stop-color:#FFFFFF"/>
		<stop  offset="1" style="stop-color:#CBCDCE"/>
	</radialGradient>
	<path fill="url(#XMLID_12_)" stroke="#F69320" stroke-width="0.4587" stroke-linecap="round" d="M11.788,33.987
		c0.035,0.011,0.068,0.021,0.102,0.031c0.219,0.065,2.994,0.196,2.873-0.201c-0.311-1.021-1.402-2.878-2.484-1.722
		c-0.455,0.486-0.834,1.065-1.289,1.553C11.241,33.783,11.512,33.898,11.788,33.987z"/>
	<path fill="none" stroke="#20341C" stroke-width="0.4831" d="M0.594,32.369c0.01-0.64,0.57-0.734,1.092-0.695
		c2.508,0.19,5.102,0.642,7.492,1.441c1.434,0.479,3.021,1.242,4.568,1.071c1.115-0.124,2.078-0.647,3.047-1.15
		c1.662-0.862,2.912-1.106,4.135,0.5"/>
	<path fill="none" stroke="#20341C" stroke-width="0.4831" d="M3.157,34.599c1.279,0,2.527,0.14,3.688,0.688"/>
	
		<radialGradient id="XMLID_13_" cx="22.3418" cy="-11.793" r="5.7567" gradientTransform="matrix(0.9087 0.4175 -0.4175 0.9087 -14.935 25.2948)" gradientUnits="userSpaceOnUse">
		<stop  offset="0" style="stop-color:#565759"/>
		<stop  offset="1" style="stop-color:#000000"/>
	</radialGradient>
	<path fill="url(#XMLID_13_)" d="M11.352,21.025c-0.648-0.012-2.76,0.092-3.16,0.81c-0.396,0.718,0.924,0.591,1.301,0.576
		c1.373-0.054,2.635,0.226,3.545,1.384c0.537,0.684,0.777,1.631,1.422,2.215c1.057,0.961,2.195-0.023,2.041-1.297
		c-0.127-1.032-1.432-2.07-2.215-2.631C13.418,21.463,12.434,21.045,11.352,21.025z"/>
	<radialGradient id="XMLID_14_" cx="2.3364" cy="23.1465" r="0.4548" gradientUnits="userSpaceOnUse">
		<stop  offset="0" style="stop-color:#565759"/>
		<stop  offset="1" style="stop-color:#000000"/>
	</radialGradient>
	<path fill="url(#XMLID_14_)" d="M2.139,21.852c-0.045,0.416-0.025,1.166,0.279,1.389c0.119-0.355,0.289-0.728,0.402-1.064
		c-0.154-0.105-0.381-0.217-0.582-0.225"/>
</g>
</svg>
