<?xml version="1.0" encoding="UTF-8" standalone="no"?>
<!-- Generator: Adobe Illustrator 12.0.0, SVG Export Plug-In . SVG Version: 6.00 Build 51448)  -->
<svg
   xmlns:dc="http://purl.org/dc/elements/1.1/"
   xmlns:cc="http://creativecommons.org/ns#"
   xmlns:rdf="http://www.w3.org/1999/02/22-rdf-syntax-ns#"
   xmlns:svg="http://www.w3.org/2000/svg"
   xmlns="http://www.w3.org/2000/svg"
   xmlns:xlink="http://www.w3.org/1999/xlink"
   xmlns:sodipodi="http://sodipodi.sourceforge.net/DTD/sodipodi-0.dtd"
   xmlns:inkscape="http://www.inkscape.org/namespaces/inkscape"
   version="1.1"
   id="Layer_1"
   width="40.833"
   height="52.177"
   viewBox="0 0 40.833 52.177"
   overflow="visible"
   enable-background="new 0 0 40.833 52.177"
   xml:space="preserve"
   sodipodi:version="0.32"
   inkscape:version="0.46"
   sodipodi:docname="Smiley_green_alien_big_eyes.svg"
   inkscape:output_extension="org.inkscape.output.svg.inkscape"><metadata
   id="metadata76"><rdf:RDF><cc:Work
       rdf:about=""><dc:format>image/svg+xml</dc:format><dc:type
         rdf:resource="http://purl.org/dc/dcmitype/StillImage" /></cc:Work></rdf:RDF></metadata><defs
   id="defs74"><radialGradient
     inkscape:collect="always"
     xlink:href="#XMLID_7_"
     id="radialGradient2488"
     gradientUnits="userSpaceOnUse"
     cx="25.204599"
     cy="25.0889"
     r="23.358601" /><radialGradient
     inkscape:collect="always"
     xlink:href="#XMLID_8_"
     id="radialGradient2490"
     gradientUnits="userSpaceOnUse"
     gradientTransform="matrix(0.9995,-3.18e-2,3.18e-2,0.9995,-0.3871,1.187)"
     cx="15.3877"
     cy="3.5913"
     r="4.2550998" /><radialGradient
     inkscape:collect="always"
     xlink:href="#XMLID_9_"
     id="radialGradient2492"
     gradientUnits="userSpaceOnUse"
     gradientTransform="matrix(0.9995,-3.18e-2,3.18e-2,0.9995,-0.3871,1.187)"
     cx="28.6992"
     cy="3.9849"
     r="4.2550998" /><radialGradient
     inkscape:collect="always"
     xlink:href="#XMLID_10_"
     id="radialGradient2494"
     gradientUnits="userSpaceOnUse"
     cx="25.1665"
     cy="24.3335"
     r="12.7769" /><radialGradient
     inkscape:collect="always"
     xlink:href="#XMLID_11_"
     id="radialGradient2496"
     gradientUnits="userSpaceOnUse"
     cx="25.6089"
     cy="24.429701"
     r="13.378" /><radialGradient
     inkscape:collect="always"
     xlink:href="#XMLID_12_"
     id="radialGradient2498"
     gradientUnits="userSpaceOnUse"
     cx="19.976601"
     cy="45.138699"
     r="4.4755001" /><radialGradient
     id="XMLID_7_"
     cx="25.204599"
     cy="25.0889"
     r="23.358601"
     gradientUnits="userSpaceOnUse">
			<stop
   offset="0"
   style="stop-color:#FFF200"
   id="stop16" />
			<stop
   offset="1"
   style="stop-color:#006E3A"
   id="stop18" />
		</radialGradient><radialGradient
     id="XMLID_8_"
     cx="15.3877"
     cy="3.5913"
     r="4.2550998"
     gradientTransform="matrix(0.9995,-3.18e-2,3.18e-2,0.9995,-0.3871,1.187)"
     gradientUnits="userSpaceOnUse">
			<stop
   offset="0"
   style="stop-color:#FFF200"
   id="stop23" />
			<stop
   offset="1"
   style="stop-color:#006E3A"
   id="stop25" />
		</radialGradient><radialGradient
     id="XMLID_9_"
     cx="28.6992"
     cy="3.9849"
     r="4.2550998"
     gradientTransform="matrix(0.9995,-3.18e-2,3.18e-2,0.9995,-0.3871,1.187)"
     gradientUnits="userSpaceOnUse">
			<stop
   offset="0"
   style="stop-color:#FFF200"
   id="stop30" />
			<stop
   offset="1"
   style="stop-color:#006E3A"
   id="stop32" />
		</radialGradient><radialGradient
     id="XMLID_10_"
     cx="25.1665"
     cy="24.3335"
     r="12.7769"
     gradientUnits="userSpaceOnUse">
			<stop
   offset="0"
   style="stop-color:#565759"
   id="stop37" />
			<stop
   offset="1"
   style="stop-color:#000000"
   id="stop39" />
		</radialGradient><radialGradient
     id="XMLID_11_"
     cx="25.6089"
     cy="24.429701"
     r="13.378"
     gradientUnits="userSpaceOnUse">
			<stop
   offset="0"
   style="stop-color:#565759"
   id="stop44" />
			<stop
   offset="1"
   style="stop-color:#000000"
   id="stop46" />
		</radialGradient><radialGradient
     id="XMLID_12_"
     cx="19.976601"
     cy="45.138699"
     r="4.4755001"
     gradientUnits="userSpaceOnUse">
			<stop
   offset="0"
   style="stop-color:#1E3319"
   id="stop51" />
			<stop
   offset="1"
   style="stop-color:#006E3A"
   id="stop53" />
		</radialGradient><radialGradient
     inkscape:collect="always"
     xlink:href="#XMLID_12_"
     id="radialGradient2527"
     gradientUnits="userSpaceOnUse"
     cx="19.976601"
     cy="45.138699"
     r="4.4755001" /><radialGradient
     inkscape:collect="always"
     xlink:href="#XMLID_11_"
     id="radialGradient2530"
     gradientUnits="userSpaceOnUse"
     cx="25.6089"
     cy="24.429701"
     r="13.378" /><radialGradient
     inkscape:collect="always"
     xlink:href="#XMLID_10_"
     id="radialGradient2533"
     gradientUnits="userSpaceOnUse"
     cx="25.1665"
     cy="24.3335"
     r="12.7769" /></defs><sodipodi:namedview
   inkscape:window-height="669"
   inkscape:window-width="640"
   inkscape:pageshadow="2"
   inkscape:pageopacity="0.0"
   guidetolerance="10.0"
   gridtolerance="10.0"
   objecttolerance="10.0"
   borderopacity="1.0"
   bordercolor="#666666"
   pagecolor="#ffffff"
   id="base"
   showgrid="false"
   inkscape:zoom="9.2761182"
   inkscape:cx="20.4165"
   inkscape:cy="26.088499"
   inkscape:window-x="1464"
   inkscape:window-y="184"
   inkscape:current-layer="Layer_1" />
<g
   id="g2541"><ellipse
     style="opacity:0.75;fill:#bcbec0"
     sodipodi:ry="2.184"
     sodipodi:rx="18.429001"
     sodipodi:cy="49.074001"
     sodipodi:cx="20.316"
     id="ellipse11"
     ry="2.184"
     rx="18.429001"
     cy="49.074001"
     cx="20.316" /><path
     style="fill:#8cc63f;stroke:#006031;stroke-width:0.4831"
     id="path13"
     d="M 26.199,13.206 C 33.442,15.497 38.692,22.272 38.692,30.273 C 38.692,40.157 30.679,48.169 20.796,48.169 C 10.912,48.169 2.9,40.156 2.9,30.273 C 2.9,21.989 8.527,15.02 16.168,12.981 L 16.27,12.59 C 15.816,12.002 14.65,9.003 14.458,9.008 C 12.385,9.074 10.651,7.447 10.585,5.374 C 10.519,3.301 12.146,1.568 14.218,1.501 C 16.291,1.435 18.026,3.062 18.091,5.136 C 18.131,6.387 17.552,7.516 16.633,8.228 C 16.499,8.331 17.637,11.504 17.761,12.215 L 18.414,12.532 C 19.194,12.428 19.989,12.375 20.796,12.375 C 21.889,12.375 22.96,12.473 23.998,12.661 L 24.684,12.375 C 24.756,11.667 25.664,8.414 25.525,8.317 C 24.576,7.664 23.94,6.583 23.9,5.343 C 23.835,3.27 25.462,1.536 27.534,1.47 C 29.607,1.404 31.341,3.031 31.407,5.103 C 31.473,7.177 29.846,8.91 27.773,8.976 C 27.574,8.982 26.455,12.075 26.016,12.747 L 26.199,13.206 z" /><circle
     sodipodi:ry="17.337999"
     sodipodi:rx="17.337999"
     sodipodi:cy="30.351999"
     sodipodi:cx="20.716"
     style="fill:url(#radialGradient2488);stroke:#28903a;stroke-width:0.4831"
     id="circle20"
     r="17.337999"
     cy="30.351999"
     cx="20.716" /><circle
     sodipodi:ry="3.1589999"
     sodipodi:rx="3.1589999"
     sodipodi:cy="5.2719998"
     sodipodi:cx="14.32"
     style="opacity:0.5;fill:url(#radialGradient2490)"
     id="circle27"
     r="3.1589999"
     cy="5.2719998"
     cx="14.32" /><circle
     sodipodi:ry="3.1589999"
     sodipodi:rx="3.1589999"
     sodipodi:cy="5.2420001"
     sodipodi:cx="27.636999"
     style="opacity:0.41000001;fill:url(#radialGradient2492)"
     id="circle34"
     r="3.1589999"
     cy="5.2420001"
     cx="27.636999" /><path
     style="fill:url(#radialGradient2533)"
     id="path41"
     d="M 14.8,16.604 C 16.84,16.015 18.792,16.479 19.18,19.274 C 19.67,22.801 20.247,27.953 19.133,31.392 C 18.038,34.768 15.168,37.217 11.491,36.8 C 8.209,36.428 5.887,33.55 5.658,30.379 C 5.503,28.24 6.118,25.469 7.122,23.609 C 8.708,20.669 11.491,17.561 14.8,16.604 z" /><path
     style="fill:url(#radialGradient2530)"
     id="path48"
     d="M 24.493,17.328 C 27.111,14.978 30.617,19.531 31.671,21.643 C 33.602,25.515 37.942,34.891 31.673,37.334 C 29.312,38.254 26.064,37.406 24.113,35.964 C 21.427,33.979 21.949,31.099 21.796,28.139 C 21.62,24.742 21.81,20.414 24.161,17.669 C 24.27,17.542 24.38,17.428 24.493,17.328 z" /><path
     style="fill:url(#radialGradient2527);stroke:#1e3319;stroke-width:0.57969999"
     id="path55"
     d="M 18.549,45.195 C 19.227,44.506 20.218,43.744 21.186,43.678 C 21.937,43.627 23.981,43.626 23.593,44.804 C 23.406,45.371 21.7,44.602 21.421,44.554 C 20.376,44.376 19.447,44.653 18.549,45.195 z" /><path
     style="fill:#ffffff"
     id="path57"
     d="M 11.982,20.474 C 11.77,20.536 11.563,20.611 11.362,20.696 C 11.574,21.107 11.211,21.147 11.811,21.362 C 11.83,21.368 11.756,22.422 12.479,22.563 C 13.556,22.772 13.046,22.061 13.46,21.64 C 13.952,21.14 16.146,19.738 14.869,18.774 C 13.693,17.888 12.327,19.023 12.806,20.31 C 12.527,20.339 12.25,20.396 11.982,20.474 z" /><path
     style="fill:#ffffff"
     id="path59"
     d="M 23.989,22.179 C 24.47,22.903 25.689,22.459 26.218,22.054 C 27.826,23.514 26.801,20.418 26.619,19.938 C 26.467,19.535 26.543,18.884 26.058,18.673 C 25.801,18.561 24.598,19.043 24.692,19.201 C 25.431,20.444 23.148,20.914 23.989,22.179 z" /><path
     style="fill:#ffffff"
     id="path61"
     d="M 27,23.667 C 24.781,24.217 26.304,26.479 27.674,25.549 C 28.779,24.8 27.877,22.682 26.5,23.834" /><path
     style="fill:#ffffff"
     id="path63"
     d="M 22.862,26.137 C 22.991,26.695 24.904,25.685 23.93,24.778 C 23.177,24.077 22.74,25.608 22.862,26.137 z" /><path
     style="fill:#ffffff"
     id="path65"
     d="M 10.5,23.833 C 9.754,24.42 9.84,25.971 10.845,25.177 C 11.511,24.651 10.969,24.072 10.333,23.999" /><path
     style="fill:#ffffff"
     id="path67"
     d="M 14.5,23.667 C 13.49,23.793 12.09,25.875 13.713,25.894 C 14.831,25.907 15.618,23.654 14,23.667" /><path
     style="fill:#c3e9fb"
     id="path69"
     d="M 31.289,37.626 C 32.187,37.355 33.527,37.007 33.545,36.168 C 33.585,34.291 31.624,36.14 31.125,36.464 C 30.395,36.938 28.727,36.398 28.239,36.917 C 26.937,38.304 30.291,37.996 30.792,37.792 C 30.926,37.737 31.097,37.684 31.289,37.626 z" /><path
     style="fill:#c3e9fb"
     id="path71"
     d="M 10.033,35.666 C 9.786,35.495 6.85,32.717 7.352,34.906 C 7.476,35.446 8.531,36.001 8.97,36.219 C 10.093,36.778 12.585,37.978 13.687,36.833 C 13.842,36.671 10.235,35.806 10.033,35.666 z" /></g>
</svg>