<?xml version="1.0" encoding="utf-8"?>
<!-- Generator: Adobe Illustrator 16.0.0, SVG Export Plug-In . SVG Version: 6.00 Build 0)  -->
<!DOCTYPE svg PUBLIC "-//W3C//DTD SVG 1.1//EN" "http://www.w3.org/Graphics/SVG/1.1/DTD/svg11.dtd">
<svg version="1.1" id="Layer_1" xmlns="http://www.w3.org/2000/svg" xmlns:xlink="http://www.w3.org/1999/xlink" x="0px" y="0px"
	 width="40.5px" height="51.75px" viewBox="0 0 40.5 51.75" enable-background="new 0 0 40.5 51.75" xml:space="preserve">
<g>
	<ellipse opacity="0.75" fill="#BDBEC0" enable-background="new    " cx="20.154" cy="48.856" rx="18.428" ry="2.184"/>
	<path fill="#8DC641" stroke="#036132" stroke-width="0.4831" d="M26.037,12.988c7.242,2.291,12.492,9.065,12.492,17.066
		c0,9.884-8.012,17.896-17.896,17.896c-9.884,0-17.896-8.012-17.896-17.896c0-8.283,5.627-15.253,13.268-17.292l0.103-0.392
		c-0.454-0.588-1.62-3.586-1.813-3.582c-2.073,0.066-3.807-1.561-3.873-3.633c-0.065-2.074,1.562-3.807,3.633-3.873
		c2.073-0.066,3.809,1.561,3.873,3.635c0.04,1.251-0.539,2.38-1.458,3.092c-0.134,0.104,1.005,3.275,1.129,3.986l0.652,0.318
		c0.78-0.105,1.575-0.158,2.382-0.158c1.094,0,2.164,0.099,3.203,0.287l0.685-0.287c0.072-0.707,0.98-3.961,0.842-4.058
		c-0.949-0.653-1.585-1.733-1.625-2.974c-0.065-2.073,1.561-3.807,3.633-3.873c2.074-0.066,3.807,1.561,3.873,3.633
		c0.066,2.074-1.561,3.807-3.633,3.873c-0.199,0.006-1.318,3.1-1.758,3.771L26.037,12.988z"/>
	
		<radialGradient id="SVGID_1_" cx="25.0054" cy="103.0645" r="23.3586" gradientTransform="matrix(1 0 0 -1 0.0376 127.9346)" gradientUnits="userSpaceOnUse">
		<stop  offset="0" style="stop-color:#FCEE23"/>
		<stop  offset="1" style="stop-color:#066F3A"/>
	</radialGradient>
	<circle fill="url(#SVGID_1_)" stroke="#2A9145" stroke-width="0.4831" cx="20.553" cy="30.134" r="17.338"/>
	
		<radialGradient id="SVGID_2_" cx="3.7202" cy="117.0547" r="4.256" gradientTransform="matrix(0.9995 -0.0318 -0.0318 -0.9995 14.9488 121.1832)" gradientUnits="userSpaceOnUse">
		<stop  offset="0" style="stop-color:#FCEE23"/>
		<stop  offset="1" style="stop-color:#066F3A"/>
	</radialGradient>
	<circle opacity="0.5" fill="url(#SVGID_2_)" enable-background="new    " cx="14.158" cy="5.054" r="3.159"/>
	
		<radialGradient id="SVGID_3_" cx="17.0313" cy="116.6611" r="4.2537" gradientTransform="matrix(0.9995 -0.0318 -0.0318 -0.9995 14.9488 121.1832)" gradientUnits="userSpaceOnUse">
		<stop  offset="0" style="stop-color:#FCEE23"/>
		<stop  offset="1" style="stop-color:#066F3A"/>
	</radialGradient>
	<circle opacity="0.41" fill="url(#SVGID_3_)" enable-background="new    " cx="27.475" cy="5.024" r="3.159"/>
	
		<radialGradient id="SVGID_4_" cx="23.1025" cy="220.6328" r="6.8943" gradientTransform="matrix(1 0 0 -1.4831 0.0376 350.8624)" gradientUnits="userSpaceOnUse">
		<stop  offset="0" style="stop-color:#57585A"/>
		<stop  offset="1" style="stop-color:#010101"/>
	</radialGradient>
	<path fill="url(#SVGID_4_)" d="M32.449,25.109c-0.064-0.06-0.139-0.119-0.225-0.175c-1.02-0.667-2.844,0.444-3.945,0.401
		c-1.139-0.044-4.326-2.123-5.019-0.645c-0.443,0.947,1.091,2.349,1.73,2.833c1.137,0.86,2.539,1.04,3.959,0.982
		C30.092,28.459,33.814,26.4,32.449,25.109z"/>
	
		<radialGradient id="SVGID_5_" cx="20.0664" cy="83.9932" r="1.8908" gradientTransform="matrix(1 0 0 -1 0.0376 127.9346)" gradientUnits="userSpaceOnUse">
		<stop  offset="0" style="stop-color:#20331C"/>
		<stop  offset="1" style="stop-color:#066F3A"/>
	</radialGradient>
	<path fill="url(#SVGID_5_)" stroke="#20331C" stroke-width="0.4203" d="M19.656,42.737c0.219-0.302,0.649-0.502,1.134-0.399
		c0.197,0.042,0.355,0.097,0.479,0.163c1.048,0.553-0.289,1.863-1.219,1.41C19.433,43.608,19.392,43.101,19.656,42.737z"/>
	
		<radialGradient id="SVGID_6_" cx="16.3579" cy="219.6953" r="3.7732" gradientTransform="matrix(1 0 0 -1.4831 0.0376 350.8624)" gradientUnits="userSpaceOnUse">
		<stop  offset="0" style="stop-color:#57585A"/>
		<stop  offset="1" style="stop-color:#010101"/>
	</radialGradient>
	<path fill="url(#SVGID_6_)" d="M19.092,25.284c-0.016-0.023-0.033-0.045-0.051-0.068c-0.495-0.633-0.982-0.285-1.622-0.174
		c-1.304,0.226-2.214,0.46-3.478,0.09c-1.035-0.304-2.334-1.17-3.43-0.563c-2.914,1.619,3.747,3.979,4.813,3.937
		C16.531,28.458,20.426,27.139,19.092,25.284z"/>
	<path fill="#333A3F" stroke="#0B1723" stroke-width="0.4831" d="M8.281,24.629c0.218-0.225,0.461-0.452,0.732-0.685
		c5.296-4.548,12.995-6.686,19.594-4.119c1.941,0.755,3.56,1.881,5.033,3.31c3.162,3.066,1.664,7.333,1.863,11.262
		c-0.007-0.133,1.582,0.592,1.637,0.583c2.199-0.372,1.611-4.28,1.594-5.688c-0.031-2.743-0.654-5.393-1.402-8
		c-0.16-0.561-0.189-0.861-0.592-1.372c-1.623-2.066-4.09-4.222-6.219-5.749c-0.32-0.23-4.317-2.664-3.514-3.108
		c1.234-0.683-1.803-1.207-2.379-1.127c-0.063,0.431,0.02,0.824,0.242,1.181c-1.536-0.469-6.374-1.347-7.749-0.226
		c1.301-1.063-2.74-1.309-2.619,0.756c0.366-0.054,0.747-0.003,1.096-0.078c-2.943,1.732-6.035,3.08-8.446,5.542
		c-0.755,0.771-5.114,4.938-3.473,6.177C2.972,24.865,1.383,35.02,4.145,34.901c1.997-0.086,2.002-4.751,2.221-6.111
		C6.656,26.995,7.112,25.835,8.281,24.629z"/>
	<path fill="#333A3F" stroke="#0B1723" stroke-width="0.4831" d="M36.688,32.123c0.356,0.089,0.691,0.201,0.988,0.346
		c2.166,1.057,0.881,2.559,0.313,4.097c-0.551,1.491-0.393,3.359-2.216,4.512c1.814,0.135-0.583,2.43-1.037,2.835
		c-7.378,6.591-18.417,7.352-26.757,1.91c-0.358-0.234-0.922-0.505-1.156-0.875c-0.232-0.369-0.008-0.965-0.204-1.284
		c-0.452-0.736-1.702-0.833-2.354-1.522c-0.707-0.747-0.802-1.707-1.284-2.478c-0.449-0.718-1.251-0.898-1.253-2.003
		c0-0.369,0.36-0.935,0.409-1.369c0.052-0.461-0.108-1.046,0-1.472c0.203-0.801,1.031-1.253,1.75-1.5
		c4.42-1.521,9.316-2.76,13.976-3.399c5.018-0.688,10.04,0.474,14.906,1.588C33.912,31.77,35.436,31.809,36.688,32.123z"/>
	<path fill="#0B1723" d="M8.754,44.948c0.67,0.906,1.853,1.176,2.814,1.63c2.378,1.125,4.908,1.713,7.541,1.713
		c3.554,0,6.296-0.005,9.207-2.13c-1.771,0.51-3.682,1.006-5.582,1.005c-2.104,0-3.396-0.704-5.238-1.407
		c-0.006-0.119,0.126-0.078,0.1-0.218c-1.375-0.725-3.155-0.037-4.598,0.057C11.793,45.676,9.758,44.508,8.754,44.948z"/>
	<path fill="#0B1723" d="M35.091,40.684c-0.124,0.191-0.071,0.494-0.306,0.734c1.527,0.624-1.81,2.885-2.426,3.248
		c-1.197,0.706-2.834,1.335-3.893,1.627c1.219-0.246,2.951-1.696,3.796-2.628c1.054-1.162,0.519-2.011,1.341-3.024
		c0.607-0.749,2.199-1.613,2.131-2.726c-0.061-0.969-1.614-1.547-2.393-1.944c1.009,0.201,2.857,0.028,3.424-1.053
		c0.813-1.548-1.148-1.813-2.117-2.25c0.365,0.165,1.336-0.345,1.941-0.09c0.584,0.246,1.041,0.776,1.32,1.332
		c1.119,2.228-1.965,5.08-3.123,6.716C34.879,40.685,34.98,40.704,35.091,40.684z"/>
	<path fill="#FFFFFF" d="M11.235,25.041c-0.553,0.364,0.074,0.856,0.625,1.013c0.885-0.563-0.312-1.064-0.875-1.138"/>
	<path fill="#FFFFFF" d="M24.609,25.041c-0.307,0.512,0.844,1.696,1.287,1.162c0.506-0.61-1.182-1.275-1.537-1.162"/>
	<path fill="#0B1723" d="M27.475,31.638c-0.889-0.122-6.066-2.324-6.345-0.368c1.083,0.383,2.075-0.211,3.105-0.11
		C25.249,31.259,26.436,31.496,27.475,31.638z"/>
	<path fill="#4F5A5E" d="M3.754,34.322c-0.223-0.133,2.065-1.004,2.265-1.045c0.997-0.206,1.993-0.395,2.993-0.68
		c2.333-0.664,4.66-1.368,7.053-1.784c-1.357,0.573-2.806,1.091-4.2,1.572c-1.044,0.36-2.089,0.569-3.104,1.003
		c-1.53,0.655-3.62,1.356-4.643,2.755c0.441-0.03,0.725,0.167,0.978,0.248c-0.783,0.34-1.567,0.781-2.468,0.63
		C2.564,35.92,5.218,35.199,3.754,34.322z"/>
	<path fill="#4F5A5E" d="M7.972,38.942c-1.167-0.034-3.2,0.725-3.496,1.969C5.605,41.476,7.365,39.847,7.972,38.942z"/>
	<path fill="#0B1723" d="M38.585,32.903c0.088-0.639,0.056-1.475-0.554-1.734c0.074-0.107,0.18-0.114,0.219-0.256
		c-2.428-0.972-0.414-4.504-1.896-6.078c-0.02,1.131,0.189,2.188,0.131,3.331c-0.043,0.855-0.627,2.676-0.207,3.438
		C36.518,32.042,38.613,32.698,38.585,32.903z"/>
	<path fill="#0B1723" d="M4.36,23.416c0.171,1.21,1.128-0.407,1.5-0.75c0.741-0.685,1.828-1.023,2.575-1.763
		c-0.058,0.073-0.332,0.357-0.221,0.241c-0.652-0.383-1.607,0.352-2.263,0.612c-0.984,0.39-1.599,0.578-1.59,1.784"/>
	<path fill="#4F5A5E" d="M5.36,20.291c-0.11,0.24-0.16,0.469-0.106,0.73c1.401-0.02,1.833-1.764,2.704-2.511
		c1.071-0.92,2.353-1.798,3.524-2.591c1.105-0.748,2.413-1.249,3.476-1.906c0.329-0.203,0.51-0.103,0.814-0.445
		c0.272-0.306-0.25-0.542-0.177-0.646c0.359-0.51,1.045-0.823,1.596-1.138c-0.557,0.207-1.128,0.219-1.1-0.475
		c-0.752-0.152-0.455-0.619,0.1-0.899c-1.174-0.276-0.81,0.435-0.833,0.853c-0.006,0.103,0.454,0.145,0.346,0.622
		c-0.062,0.272-0.441,0.455-0.628,0.625c-1.14,1.041-2.661,1.729-3.972,2.531c-2.192,1.342-4.63,3.111-5.869,5.375"/>
	<path fill="#4F5A5E" d="M21.86,12.041c-0.09-1.244-3.916-0.544-3.637,0.503c0.238,0.892,3.477-0.478,3.887-0.753"/>
</g>
</svg>
