<?xml version="1.0" encoding="utf-8"?>
<!-- Generator: Adobe Illustrator 16.0.0, SVG Export Plug-In . SVG Version: 6.00 Build 0)  -->
<!DOCTYPE svg PUBLIC "-//W3C//DTD SVG 1.1//EN" "http://www.w3.org/Graphics/SVG/1.1/DTD/svg11.dtd">
<svg version="1.1" id="Layer_1" xmlns="http://www.w3.org/2000/svg" xmlns:xlink="http://www.w3.org/1999/xlink" x="0px" y="0px"
	 width="44.775px" height="51.339px" viewBox="0 0 44.775 51.339" enable-background="new 0 0 44.775 51.339" xml:space="preserve">
<g>
	<path fill="#C9D3D6" stroke="#6C6D6D" stroke-width="0.4831" d="M42.825,40.938c-0.819-2.595-2.208-5.122-3.669-6.773
		c-0.605-0.683-1.864-2.423-2.945-1.792c-0.896,0.523-0.309,1.92,0.26,2.536c0.927,1.003,1.497,1.841,2.031,3.088
		c1.104,2.576,1.225,5.319,1.025,8.119c1.329-1.21,3.128-1.357,3.975,0.406C43.73,44.845,43.436,42.873,42.825,40.938z"/>
	<path fill="#B3B9BA" stroke="#6C6D6D" stroke-width="0.4831" d="M40.245,41.478c-0.005-2.191-0.817-4.628-1.959-5.627
		c-0.68-0.594-1.831-1.133-2.03,0.104c-0.117,0.731,0.781,1.234,1.068,1.844c0.362,0.77,0.345,1.751,0.303,2.581
		c-0.078,1.529-0.785,2.086-1.48,3.344c0.943,0.684,1.832,2.224,2.887,1.312C39.892,44.291,40.248,42.939,40.245,41.478z"/>
	<path fill="#B3B9BA" stroke="#6C6D6D" stroke-width="0.4831" d="M34.877,32.378c0.497-0.479,2.227-0.603,2.979-0.731
		c1.119,1.214,1.271,3.575,0.524,5.106c-0.961,1.971-2.414,0.713-3.856-0.147c0.012-1.389-0.395-4.036,1.104-4.228"/>
	<g>
		<path fill="#8DC641" stroke="#036132" stroke-width="0.4831" d="M13.756,7.029c0.649-0.964,0.849-2.217,0.417-3.393
			c-0.708-1.95-2.863-2.954-4.813-2.244c-1.947,0.71-2.951,2.865-2.242,4.813c0.711,1.95,2.866,2.954,4.813,2.243
			c0.181-0.065,2.854,3.024,2.854,3.024c0.166-0.111,0.047,0.898,0.16,0.733c1.652-1.134,0.859-1.831,0.838-2.196
			C15.113,9.026,13.675,7.146,13.756,7.029z"/>
		
			<radialGradient id="SVGID_1_" cx="113.8604" cy="237.0723" r="4.2544" gradientTransform="matrix(-0.1791 0.9839 0.9839 0.1791 -201.4103 -148.636)" gradientUnits="userSpaceOnUse">
			<stop  offset="0" style="stop-color:#FCEE23"/>
			<stop  offset="1" style="stop-color:#066F3A"/>
		</radialGradient>
		<circle opacity="0.5" fill="url(#SVGID_1_)" enable-background="new    " cx="10.656" cy="4.875" r="3.159"/>
	</g>
	<ellipse opacity="0.75" fill="#BDBEC0" enable-background="new    " cx="19.463" cy="48.36" rx="18.429" ry="2.184"/>
	<path fill="#8DC641" stroke="#036132" stroke-width="0.4831" d="M16.471,9.984c-0.53,0.27-1.065,0.556-1.618,0.836
		c0.223,0.473,0.426,0.876,0.564,1.055l-0.007,0.026c0.573-0.098,1.146-0.192,1.72-0.293L16.908,11.5
		C16.862,11.238,16.679,10.639,16.471,9.984z"/>
	<path fill="#8DC641" stroke="#036132" stroke-width="0.4831" d="M25.347,12.492l-0.184-0.459c0.439-0.672,1.559-3.766,1.757-3.771
		c2.073-0.066,3.7-1.799,3.634-3.873c-0.066-2.072-1.8-3.699-3.873-3.633c-2.072,0.066-3.699,1.8-3.634,3.873
		c0.04,1.24,0.677,2.32,1.625,2.974c0.14,0.097-0.769,3.351-0.841,4.058l-0.686,0.287c-1.039-0.188-2.109-0.287-3.203-0.287
		c-0.807,0-1.602,0.053-2.382,0.158l-0.431-0.21c-0.573,0.101-1.146,0.195-1.72,0.293l-0.096,0.366
		C7.674,14.306,2.047,21.275,2.047,29.559c0,9.884,8.012,17.896,17.896,17.896s17.896-8.012,17.896-17.896
		C37.839,21.558,32.589,14.783,25.347,12.492z"/>
	
		<radialGradient id="SVGID_2_" cx="24.314" cy="111.9473" r="23.3586" gradientTransform="matrix(1 0 0 -1 0.0376 136.3213)" gradientUnits="userSpaceOnUse">
		<stop  offset="0" style="stop-color:#FCEE23"/>
		<stop  offset="1" style="stop-color:#066F3A"/>
	</radialGradient>
	<circle fill="url(#SVGID_2_)" stroke="#2A9145" stroke-width="0.4831" cx="19.862" cy="29.638" r="17.338"/>
	
		<radialGradient id="SVGID_3_" cx="16.4897" cy="125.5479" r="4.2551" gradientTransform="matrix(0.9995 -0.0318 -0.0318 -0.9995 15.0819 129.553)" gradientUnits="userSpaceOnUse">
		<stop  offset="0" style="stop-color:#FCEE23"/>
		<stop  offset="1" style="stop-color:#066F3A"/>
	</radialGradient>
	<circle opacity="0.41" fill="url(#SVGID_3_)" enable-background="new    " cx="26.784" cy="4.528" r="3.159"/>
	
		<radialGradient id="SVGID_4_" cx="19.376" cy="92.876" r="1.8905" gradientTransform="matrix(1 0 0 -1 0.0376 136.3213)" gradientUnits="userSpaceOnUse">
		<stop  offset="0" style="stop-color:#20331C"/>
		<stop  offset="1" style="stop-color:#066F3A"/>
	</radialGradient>
	<path fill="url(#SVGID_4_)" stroke="#20331C" stroke-width="0.4203" d="M18.965,42.241c0.219-0.302,0.649-0.502,1.134-0.399
		c0.197,0.042,0.355,0.097,0.479,0.163c1.048,0.553-0.289,1.863-1.219,1.41C18.742,43.112,18.701,42.604,18.965,42.241z"/>
	<path fill="#C9D3D6" stroke="#6C6D6D" stroke-width="0.4831" d="M7.59,24.133c0.218-0.225,0.461-0.452,0.732-0.685
		c5.296-4.548,12.995-6.686,19.594-4.119c1.941,0.755,3.561,1.881,5.033,3.31c3.162,3.066,1.664,7.333,1.863,11.262
		c-0.006-0.133,1.583,0.592,1.637,0.583c2.2-0.372,1.611-4.28,1.595-5.688c-0.032-2.743-0.655-5.393-1.403-8
		c-0.16-0.561-0.189-0.861-0.591-1.372c-1.623-2.066-4.091-4.222-6.219-5.749c-0.321-0.23-4.317-2.664-3.515-3.108
		c1.235-0.683-1.803-1.207-2.378-1.127c-0.064,0.431,0.02,0.824,0.242,1.181c-1.536-0.469-6.374-1.347-7.749-0.226
		c1.301-1.063-2.739-1.309-2.618,0.756c0.365-0.054,0.746-0.003,1.096-0.078c-2.943,1.732-6.035,3.08-8.445,5.542
		c-0.756,0.771-5.115,4.938-3.473,6.177c-0.71,1.577-2.299,11.732,0.463,11.613c1.996-0.086,2.002-4.751,2.221-6.111
		C5.965,26.499,6.421,25.339,7.59,24.133z"/>
	<path fill="#C9D3D6" stroke="#6C6D6D" stroke-width="0.4831" d="M35.996,31.626c0.357,0.089,0.691,0.201,0.989,0.346
		c2.165,1.057,0.88,2.559,0.312,4.097c-0.551,1.491-0.393,3.359-2.215,4.512c1.814,0.135-0.584,2.43-1.037,2.835
		c-7.378,6.591-18.417,7.352-26.757,1.91c-0.359-0.234-0.923-0.505-1.156-0.875c-0.232-0.369-0.008-0.965-0.203-1.284
		c-0.452-0.736-1.702-0.833-2.354-1.522c-0.707-0.747-0.803-1.707-1.285-2.478c-0.449-0.718-1.251-0.898-1.252-2.003
		c-0.001-0.369,0.359-0.935,0.408-1.369c0.053-0.461-0.107-1.046,0-1.472c0.203-0.801,1.031-1.253,1.75-1.5
		c4.42-1.521,9.316-2.76,13.976-3.399c5.018-0.688,10.04,0.474,14.906,1.588C33.222,31.273,34.744,31.313,35.996,31.626z"/>
	<path fill="#B6BEBF" d="M19.716,33.741c1.156,0.849,2.557,0.563,3.734,1.189c0.541,0.287,0.314,1.032,1.171,1.316
		c1.093,0.364,1.566,0.011,2.562-0.181c1.402-0.271,2.774-1.421,3.882,0.001c0.998,1.282-0.137,2.897-0.938,3.938
		c-3.69,4.798-10.248,7.798-15.905,5.481c3.765,2.47,8.77,1.625,12.739,0.115c2.077-0.791,8.108-2.445,7.879-5.309
		c-2.312-0.477,2.164-4.184,1.786-6.036c-0.716-3.507-3.953-0.917-5.886-0.287C27.169,35.134,23.385,33.802,19.716,33.741z"/>
	<path fill="#FFFFFF" d="M26.784,31.142c-0.889-0.122-6.066-2.324-6.346-0.368c1.082,0.383,2.074-0.211,3.105-0.11
		C24.558,30.763,25.744,31,26.784,31.142z"/>
	<path fill="#FFFFFF" d="M3.063,33.826c-0.224-0.133,2.064-1.004,2.265-1.045c0.997-0.206,1.993-0.395,2.993-0.68
		c2.333-0.664,4.66-1.368,7.053-1.784c-1.357,0.573-2.806,1.091-4.199,1.572c-1.044,0.36-2.089,0.569-3.104,1.003
		c-1.53,0.655-3.62,1.356-4.643,2.755c0.441-0.03,0.725,0.167,0.978,0.248c-0.783,0.34-1.567,0.781-2.468,0.63
		C1.874,35.424,4.527,34.703,3.063,33.826z"/>
	<path fill="#FFFFFF" d="M7.28,38.446c-1.166-0.034-3.199,0.725-3.496,1.969C4.914,40.979,6.675,39.351,7.28,38.446z"/>
	<path fill="#7A7F84" d="M37.895,32.407c0.088-0.639,0.055-1.475-0.554-1.734c0.073-0.107,0.179-0.114,0.219-0.256
		c-2.429-0.972-0.414-4.504-1.896-6.078c-0.02,1.131,0.189,2.188,0.131,3.331c-0.044,0.855-0.627,2.676-0.208,3.438
		C35.827,31.545,37.922,32.202,37.895,32.407z"/>
	<path fill="#7A7F84" d="M3.669,22.92c0.172,1.21,1.129-0.407,1.5-0.75c0.741-0.685,1.828-1.023,2.574-1.763
		c-0.058,0.073-0.332,0.357-0.221,0.241C6.87,20.266,5.915,21,5.259,21.261c-0.984,0.39-1.598,0.578-1.59,1.784"/>
	<path fill="#FFFFFF" d="M4.669,19.795c-0.11,0.24-0.16,0.469-0.105,0.73c1.4-0.02,1.832-1.764,2.703-2.511
		c1.071-0.92,2.354-1.798,3.524-2.591c1.104-0.748,2.413-1.249,3.476-1.906c0.328-0.203,0.51-0.103,0.814-0.445
		c0.271-0.306-0.25-0.542-0.178-0.646c0.359-0.51,1.046-0.823,1.596-1.138c-0.557,0.207-1.127,0.219-1.1-0.475
		c-0.752-0.152-0.454-0.619,0.101-0.899c-1.175-0.276-0.81,0.435-0.833,0.853c-0.006,0.103,0.453,0.145,0.346,0.622
		c-0.062,0.272-0.441,0.455-0.628,0.625c-1.14,1.041-2.661,1.729-3.972,2.531c-2.191,1.342-4.631,3.111-5.869,5.375"/>
	<path fill="#FFFFFF" d="M21.169,11.545c-0.09-1.244-3.916-0.544-3.637,0.503c0.238,0.892,3.477-0.478,3.887-0.753"/>
	<path fill="#B6BEBF" d="M7.127,41.253c0.688,0.813,1.575,1.57,2.712,1.462c0.233-1.014-0.18-1.728-1.168-2.005
		c0.285-2.427,3.178-1.428,4.956-1.702c1.659-0.255,4.036-1.049,5.413-2.018c-2.514,0.459-5.282,1.245-7.913,1.262
		C9.2,38.266,9.036,37.85,7.634,39.26c-0.985,0.989-2.063,2.132-0.007,2.744"/>
	<path fill="#28903B" d="M16.061,21.351c0.127-0.138-0.854-0.233-0.816-0.229c-0.46-0.054-1.026,0.097-1.468,0.208
		c-0.916,0.229-1.873,0.627-2.531,1.327c-0.408,0.433-0.746,0.935-1.191,1.337c0.857-0.552,1.775-1.235,2.662-1.705
		c1.023-0.541,2.246-0.415,3.296-0.906C16.035,21.373,16.051,21.362,16.061,21.351z"/>
	
		<radialGradient id="SVGID_5_" cx="-7.4453" cy="15.4067" r="4.1398" gradientTransform="matrix(0.9701 -0.2426 0.2426 0.9701 15.6031 8.3861)" gradientUnits="userSpaceOnUse">
		<stop  offset="0" style="stop-color:#57585A"/>
		<stop  offset="1" style="stop-color:#010101"/>
	</radialGradient>
	<path fill="url(#SVGID_5_)" d="M12.331,25.656c-1.191,0.945-2.234,2.176-2.102,3.187c1.563-1,2.48-2.51,4.461-2.983
		c1.063-0.254,1.756,0.311,2.795,0.32c1.139,0.009,1.268-1.067,0.5-1.739c-0.752-0.657-2.266-0.445-3.125-0.22
		C14.229,24.387,13.237,24.939,12.331,25.656z"/>
	
		<radialGradient id="SVGID_6_" cx="18.084" cy="21.7896" r="4.14" gradientTransform="matrix(-0.9701 -0.2426 -0.2426 0.9701 52.8998 8.3861)" gradientUnits="userSpaceOnUse">
		<stop  offset="0" style="stop-color:#57585A"/>
		<stop  offset="1" style="stop-color:#010101"/>
	</radialGradient>
	<path fill="url(#SVGID_6_)" d="M29.855,25.656c1.192,0.945,2.234,2.176,2.103,3.187c-1.563-1-2.479-2.51-4.462-2.983
		c-1.063-0.254-1.754,0.311-2.794,0.32c-1.139,0.009-1.268-1.067-0.5-1.739c0.752-0.657,2.266-0.445,3.126-0.22
		C27.959,24.387,28.951,24.939,29.855,25.656z"/>
</g>
</svg>
