<?xml version="1.0" encoding="utf-8"?>
<!-- Generator: Adobe Illustrator 20.1.0, SVG Export Plug-In . SVG Version: 6.00 Build 0)  -->
<svg version="1.1" id="Layer_1" xmlns="http://www.w3.org/2000/svg" xmlns:xlink="http://www.w3.org/1999/xlink" x="0px" y="0px"
	 viewBox="0 0 40.8 52.2" style="enable-background:new 0 0 40.8 52.2;" xml:space="preserve">
<style type="text/css">
	.st0{opacity:0.75;fill:#CDCCCA;enable-background:new    ;}
	.st1{fill:#9F55E3;stroke:#231F20;stroke-width:0.4831;}
	.st2{fill:url(#SVGID_1_);stroke:#886EEA;stroke-width:0.4831;}
	.st3{opacity:0.5;fill:url(#SVGID_2_);enable-background:new    ;}
	.st4{opacity:0.41;fill:url(#SVGID_3_);enable-background:new    ;}
	.st5{fill:url(#SVGID_4_);}
	.st6{fill:url(#SVGID_5_);}
	.st7{fill:url(#SVGID_6_);stroke:#231F20;stroke-width:0.5797;}
	.st8{fill:url(#SVGID_7_);stroke:#A44389;stroke-width:0.4587;stroke-linecap:round;}
	.st9{fill:none;stroke:#A44389;stroke-width:0.4587;stroke-linecap:round;}
	.st10{fill:none;stroke:#231F20;stroke-width:0.5797;}
	.st11{opacity:0.49;fill:#FFFFFF;enable-background:new    ;}
	.st12{fill:#231F20;}
</style>
<ellipse class="st0" cx="20.3" cy="49.1" rx="18.4" ry="2.2"/>
<path class="st1" d="M26.2,13.2c7.2,2.3,12.5,9.1,12.5,17.1c0,9.9-8,17.9-17.9,17.9c-9.9,0-17.9-8-17.9-17.9C2.9,22,8.5,15,16.2,13
	l0.1-0.4C15.8,12,14.7,9,14.5,9c-2.1,0.1-3.8-1.6-3.9-3.6s1.6-3.8,3.6-3.9c2.1-0.1,3.8,1.6,3.9,3.6c0,1.3-0.5,2.4-1.5,3.1
	c-0.1,0.1,1,3.3,1.1,4l0.7,0.3c0.8-0.1,1.6-0.2,2.4-0.2c1.1,0,2.2,0.1,3.2,0.3l0.7-0.3c0.1-0.7,1-4,0.8-4.1c-0.9-0.7-1.6-1.7-1.6-3
	c-0.1-2.1,1.6-3.8,3.6-3.9c2.1-0.1,3.8,1.6,3.9,3.6c0.1,2.1-1.6,3.8-3.6,3.9c-0.2,0-1.3,3.1-1.8,3.8L26.2,13.2z"/>
<radialGradient id="SVGID_1_" cx="25.2046" cy="28.9111" r="23.3586" gradientTransform="matrix(1 0 0 -1 0 54)" gradientUnits="userSpaceOnUse">
	<stop  offset="0" style="stop-color:#D447FF"/>
	<stop  offset="1" style="stop-color:#231F20"/>
</radialGradient>
<circle class="st2" cx="20.7" cy="30.4" r="17.3"/>
<radialGradient id="SVGID_2_" cx="3.5079" cy="41.5345" r="4.2551" gradientTransform="matrix(0.9995 -3.180000e-02 -3.180000e-02 -0.9995 12.9218 45.9125)" gradientUnits="userSpaceOnUse">
	<stop  offset="0" style="stop-color:#D447FF"/>
	<stop  offset="1" style="stop-color:#231F20"/>
</radialGradient>
<circle class="st3" cx="14.3" cy="5.3" r="3.2"/>
<radialGradient id="SVGID_3_" cx="16.8194" cy="41.1409" r="4.2551" gradientTransform="matrix(0.9995 -3.180000e-02 -3.180000e-02 -0.9995 12.9218 45.9125)" gradientUnits="userSpaceOnUse">
	<stop  offset="0" style="stop-color:#D447FF"/>
	<stop  offset="1" style="stop-color:#231F20"/>
</radialGradient>
<circle class="st4" cx="27.6" cy="5.2" r="3.2"/>
<radialGradient id="SVGID_4_" cx="19.6821" cy="33.2549" r="1.6975" gradientTransform="matrix(1 0 0 -1 0 54)" gradientUnits="userSpaceOnUse">
	<stop  offset="0" style="stop-color:#A44389"/>
	<stop  offset="1" style="stop-color:#000000"/>
</radialGradient>
<path class="st5" d="M17,19c0.1,0.1,0.2,0.2,0.3,0.4c0.9,1.9-2.8,2.5-2.5,0.4C14.9,18.5,16.2,18.2,17,19z"/>
<radialGradient id="SVGID_5_" cx="23.5444" cy="31.9839" r="3.2532" gradientTransform="matrix(1 0 0 -1 0 54)" gradientUnits="userSpaceOnUse">
	<stop  offset="0" style="stop-color:#A44389"/>
	<stop  offset="1" style="stop-color:#000000"/>
</radialGradient>
<path class="st6" d="M23.4,19c-1,0.9-0.9,3,0.6,3.1c2.6,0.2,2.2-4.4-0.2-3.4C23.7,18.8,23.6,18.9,23.4,19z"/>
<radialGradient id="SVGID_6_" cx="12.8086" cy="15.6406" r="21.4323" gradientTransform="matrix(1 0 0 -1 0 54)" gradientUnits="userSpaceOnUse">
	<stop  offset="0" style="stop-color:#231F20"/>
	<stop  offset="1" style="stop-color:#231F20"/>
</radialGradient>
<path class="st7" d="M19.4,29.6c-1.5-0.2-3-0.4-4.5-0.5c-2.7-0.3-4.7-0.9-7.3-1.6C5.9,27,5.8,28,6.1,29.8c0.3,2.3,2.5,6.5,4.6,7.8
	c3,1.9,7.4,1.4,10.4-0.2c2.2-1.2,4.3-2.6,6.1-4.2c0.9-0.8,3.6-2.8,3.1-4.1c-1.8,0.3-3.5,0.7-5.4,0.8C23,29.9,21.2,29.8,19.4,29.6z"
	/>
<radialGradient id="SVGID_7_" cx="18.2303" cy="22.045" r="9.1322" gradientTransform="matrix(1 0 0 -1 0 54)" gradientUnits="userSpaceOnUse">
	<stop  offset="1.120000e-02" style="stop-color:#FAA7FF"/>
	<stop  offset="0.5562" style="stop-color:#FFFFFF"/>
	<stop  offset="1" style="stop-color:#B189FF"/>
</radialGradient>
<path class="st8" d="M24.9,29.8c-1.9,0.1-3.7,0-5.5-0.2c-0.5-0.1-1-0.1-1.5-0.2c-1.2-0.1-2.4-0.2-3.5-0.4c-0.5-0.1-1-0.1-1.5-0.2
	c-3.2-0.5-5.6-1.1-6.5-1.3c-0.1,0.1-0.2,0.2-0.3,0.3c0.2,0.9,0.5,3.1,0.6,3.4c0.5,0.2,1.1,0.5,1.7,0.5c0,1,0.9,2.2,1.5,3
	c0.4,0.5,1.4,1.7,2.1,1.8c-0.5-0.1,0.5-3,0.6-3.4c1,0.4,2.1,0.4,3.1,0.6c1.6,0.3,3.3,0.5,5,0.5c1.4,0,4.1-0.3,5.9-0.6
	c0.2-0.2,0.4-0.3,0.6-0.5c0.9-0.8,3.4-2.6,3.2-4c-0.8,0.1-1.6,0.3-2.4,0.3C27,29.6,26,29.8,24.9,29.8z"/>
<path class="st9" d="M15.9,29.3c0,0.7,0,1.5,0,2.2"/>
<path class="st9" d="M20.8,29.8c-0.1,0.6-0.3,1.7-0.2,2"/>
<path class="st9" d="M25.4,30c-0.1,0.4-0.2,1.9-0.2,2"/>
<path class="st9" d="M8.1,28.9c0.1,1.4,0.1,3,0.7,4.2"/>
<path class="st10" d="M19.4,29.6c-1.5-0.2-3-0.4-4.5-0.5c-2.7-0.3-4.7-0.9-7.3-1.6C5.9,27,5.8,28,6.1,29.8c0.3,2.3,2.5,6.5,4.6,7.8
	c3,1.9,7.4,1.4,10.4-0.2c2.2-1.2,4.3-2.6,6.1-4.2c0.9-0.8,3.6-2.8,3.1-4.1c-1.8,0.3-3.5,0.7-5.4,0.8C23,29.9,21.2,29.8,19.4,29.6z"
	/>
<circle class="st11" cx="24.1" cy="20.6" r="0.7"/>
<circle class="st11" cx="16.1" cy="19.5" r="0.5"/>
<g>
	<path class="st12" d="M12.1,16.9c-0.7,0.9-1.4,1.8-1.8,2.7c1.4-2,4.6-4.9,7.2-4.9c0.5,0,1,0.2,1.3,0.6c0.2,0.2,0.5,0.2,0.7,0
		c0.2-0.2,0.2-0.5,0-0.7c-0.5-0.6-1.2-0.9-2.1-0.9C15.5,13.6,13.6,15.2,12.1,16.9z"/>
</g>
<g>
	<path class="st12" d="M22.8,14.9c-0.2,0.2-0.2,0.5,0,0.7c0.2,0.2,0.5,0.2,0.7,0c0.6-0.5,1.2-0.8,2-0.7c2.4,0.3,3.8,2.5,5.2,4.2
		c0.4,0.5,1.1,1,1.4,1.6c-1.9-2.4-3-6.2-6.5-6.7C24.6,13.9,23.6,14.2,22.8,14.9z"/>
</g>
</svg>
